<?xml version="1.0" standalone="no"?>
<!DOCTYPE svg PUBLIC "-//W3C//DTD SVG 1.1//EN" "http://www.w3.org/Graphics/SVG/1.1/DTD/svg11.dtd">
<svg width="100%" height="100%" viewBox="0 0 3266 1500" version="1.1" xmlns="http://www.w3.org/2000/svg" xmlns:xlink="http://www.w3.org/1999/xlink" xml:space="preserve" style="fill-rule:evenodd;clip-rule:evenodd;stroke-linejoin:round;stroke-miterlimit:1.41421;">
    <path d="M865.65,0L2170.34,0C2203.82,6.81 2236.79,17.42 2266.7,34.14C2274.73,38.37 2282.34,43.35 2290.06,48.14C2316.73,66.89 2341.26,89.29 2359.65,116.39C2380.07,145.63 2393.56,179.77 2397.8,215.24C2400.95,244.3 2398.74,274.11 2389.91,302.05C2380.76,332.06 2364.71,359.7 2344.61,383.67C2325.9,405.16 2304.05,424 2279.59,438.68C2267.62,446.08 2255.01,452.37 2242.24,458.24C2227.69,464.69 2212.52,469.58 2197.32,474.22C2192.68,475.48 2187.51,475.71 2183.67,478.92C2183.31,479.79 2183.34,480.64 2183.77,481.49C2185.89,485.89 2188.42,490.43 2192.86,492.88C2197.39,495.4 2200.47,499.66 2203.39,503.82C2206.21,508.03 2211.17,509.87 2214.78,513.26C2217.25,515.56 2218.44,518.88 2220.84,521.27C2225.75,526.85 2233.36,530.02 2235.97,537.46C2236.64,541.09 2238.55,544.27 2241.49,546.53C2254.02,558.66 2266.32,571.03 2278.55,583.47C2283.36,588.32 2288.71,592.62 2293.41,597.6C2297.44,601.89 2301.59,606.07 2305.78,610.22C2308.63,613 2311,616.37 2314.41,618.54C2317.89,619.16 2321.46,618.81 2325.01,618.87C2344.34,618.82 2363.67,618.86 2383,618.85C2388.66,618.87 2394.34,618.63 2400.01,619.11C2400.5,669.39 2400.08,719.7 2400.22,770C2399.99,778.12 2400.74,786.29 2399.75,794.37C2284.84,794.37 2169.92,794.38 2055,794.37C2036.34,794.12 2017.65,794.98 1999.03,793.64C1960.65,793.6 1922.27,793.67 1883.89,793.61C1883.23,782.76 1883.79,771.87 1883.61,761C1883.73,713.69 1883.38,666.37 1883.79,619.07C1907.84,618.54 1931.93,619 1956,618.84C1963.63,618.66 1971.32,619.4 1978.9,618.27C1976.78,610.86 1969.03,608.09 1964.58,602.46C1961.72,598.97 1958.81,595.49 1955.25,592.71C1949.66,588.31 1945.82,582.15 1940.19,577.81C1934.51,573.47 1930.95,567.05 1925.33,562.66C1915.38,554.64 1908.27,542.94 1896.3,537.57C1890.97,533.65 1886.68,528.57 1881.88,524.08C1877.34,519.6 1873.52,514.41 1868.42,510.53C1862.09,505.44 1858.33,497.5 1850.85,493.84C1842.26,493.17 1833.61,493.83 1825,493.61C1650.67,493.6 1476.33,493.6 1302,493.61C1295.26,493.48 1288.46,494.07 1281.78,492.94C1277.44,492.28 1273.06,492.5 1268.71,492.67C1268.29,507.53 1268.69,522.4 1268.49,537.26C1268.38,565.71 1268.55,594.17 1268.38,622.62C1297.92,622.9 1327.46,622.65 1357,622.74C1362.76,622.92 1368.66,622.02 1374.31,623.55C1375.13,633.68 1374.48,643.85 1374.69,654C1374.65,702.66 1374.76,751.32 1374.63,799.98C1369.66,802.05 1364.21,801.17 1359,801.31C1196.64,801.31 1034.28,801.27 871.92,801.32C869.84,801.34 867.89,800.58 865.95,799.98C865.52,742.66 865.97,685.32 865.73,627.99C865.67,625.16 865.94,622.36 866.36,619.58C877.51,618.15 888.79,619.12 900,618.84C921.51,618.72 943.04,619.09 964.54,618.67C964.72,595.44 964.56,572.2 964.6,548.97C964.52,545.08 965.8,541.19 964.93,537.33C964.16,532.93 964.52,528.44 964.45,524C964.49,410.32 964.42,296.64 964.49,182.95C964.43,181.39 964.63,179.51 962.84,178.85C959.93,178.24 956.94,178.5 954,178.47C924.61,178.59 895.21,178.37 865.82,178.6C865.44,173.07 865.68,167.53 865.66,162C865.65,108 865.66,54 865.65,0M2001.99,176.53C1769.99,176.55 1537.99,176.48 1306,176.55C1296.32,176.45 1286.62,176.87 1276.98,175.88C1275.64,175.71 1274.43,176.03 1273.35,176.84C1273.55,180.23 1274.28,183.56 1274.31,186.96C1274.27,218.97 1274.3,250.99 1274.29,283C1274.04,293.05 1274.98,303.17 1273.41,313.16C1274.91,314.56 1276.84,315.44 1278.95,315.28C1293.96,315.17 1308.99,315.51 1324,314.78C1332.67,314.48 1341.34,315.93 1350.01,314.86C1357.99,315.04 1365.99,315.49 1374,315.24C1384.66,314.39 1395.33,315.86 1406,314.98C1413.67,314.19 1421.33,315.75 1429,314.99C1440.33,314.06 1451.68,316.06 1463,314.87C1477.66,314.64 1492.33,314.88 1507,314.76C1512,314.62 1516.99,315.54 1522,314.96C1529.67,314.19 1537.33,315.76 1545,314.87C1557.33,314.68 1569.67,314.83 1582,314.79C1588.66,315.16 1595.34,315.59 1602.01,314.98C1611.68,314.16 1621.33,315.88 1631.01,315.11C1641.67,314.11 1652.33,315.6 1663,315.26C1676.34,315.59 1689.65,314.33 1703,314.83C1714.31,315.67 1725.67,315.16 1736.99,314.78C1743.34,314.5 1749.65,315.4 1756,315.27C1775.66,315.24 1795.33,315.26 1815,315.26C1821,315.4 1826.99,314.33 1832.99,315.04C1855.99,316.07 1879,313.72 1901.99,315.22C1910.99,315.24 1920.01,315.51 1928.99,314.82C1936,314.41 1942.98,315.51 1950,315.26C1961.67,315.5 1973.32,314.47 1985,314.79C2000.32,314.34 2015.79,316.76 2030.99,313.9C2039.92,313.23 2048.93,314.26 2057.85,313.42C2064.63,310.89 2072.01,310.83 2078.9,308.61C2091.06,304.87 2102.7,298.8 2111.94,289.94C2123.43,279.5 2130.66,264.81 2132.7,249.47C2134.9,241.08 2131.44,232.93 2129.28,224.95C2122.67,206.02 2106.91,191.35 2088.7,183.58C2081.98,180.98 2075.38,177.69 2068.1,177.07C2063.03,176.51 2058.15,174.57 2053.01,174.7C2042.33,174.76 2031.65,174.68 2020.97,174.77C2014.63,175.24 2008.37,176.63 2001.99,176.53" style="fill:rgb(244,42,64);fill-rule:nonzero;"/>
    <path d="M0,537.57C309.33,537.64 618.67,537.59 928,537.6C940.31,537.45 952.63,537.94 964.93,537.33C965.8,541.19 964.52,545.08 964.6,548.97C964.56,572.2 964.72,595.44 964.54,618.67C943.04,619.09 921.51,618.72 900,618.84C888.79,619.12 877.51,618.15 866.36,619.58C865.94,622.36 865.67,625.16 865.73,627.99C865.97,685.32 865.52,742.66 865.95,799.98C867.89,800.58 869.84,801.34 871.92,801.32C1034.28,801.27 1196.64,801.31 1359,801.31C1364.21,801.17 1369.66,802.05 1374.63,799.98C1374.76,751.32 1374.65,702.66 1374.69,654C1374.48,643.85 1375.13,633.68 1374.31,623.55C1368.66,622.02 1362.76,622.92 1357,622.74C1327.46,622.65 1297.92,622.9 1268.38,622.62C1268.55,594.17 1268.38,565.71 1268.49,537.26C1274.3,537.84 1280.16,537.54 1286,537.6C1341.71,537.58 1397.42,537.66 1453.13,537.56C1461.27,549.77 1466.82,563.43 1473.52,576.44C1476.4,583.71 1479.86,590.73 1483.51,597.65C1530.27,691.21 1577.17,784.71 1623.85,878.32C1628.25,886.73 1632.02,895.49 1636.93,903.64C1643.02,892.26 1648.49,880.56 1654.36,869.06C1709.27,759.34 1764.13,649.6 1819.01,539.86C1819.72,537.83 1822.01,537.5 1823.9,537.58C1848.03,537.61 1872.16,537.63 1896.3,537.57C1908.27,542.94 1915.38,554.64 1925.33,562.66C1930.95,567.05 1934.51,573.47 1940.19,577.81C1945.82,582.15 1949.66,588.31 1955.25,592.71C1958.81,595.49 1961.72,598.97 1964.58,602.46C1969.03,608.09 1976.78,610.86 1978.9,618.27C1971.32,619.4 1963.63,618.66 1956,618.84C1931.93,619 1907.84,618.54 1883.79,619.07C1883.38,666.37 1883.73,713.69 1883.61,761C1883.79,771.87 1883.23,782.76 1883.89,793.61C1922.27,793.67 1960.65,793.6 1999.03,793.64C2017.65,794.98 2036.34,794.12 2055,794.37C2169.92,794.38 2284.84,794.37 2399.75,794.37C2400.74,786.29 2399.99,778.12 2400.22,770C2400.08,719.7 2400.5,669.39 2400.01,619.11C2394.34,618.63 2388.66,618.87 2383,618.85C2363.67,618.86 2344.34,618.82 2325.01,618.87C2321.46,618.81 2317.89,619.16 2314.41,618.54C2311,616.37 2308.63,613 2305.78,610.22C2301.59,606.07 2297.44,601.89 2293.41,597.6C2288.71,592.62 2283.36,588.32 2278.55,583.47C2266.32,571.03 2254.02,558.66 2241.49,546.53C2238.55,544.27 2236.64,541.09 2235.97,537.46C2242.3,537.7 2248.65,537.58 2255,537.6C2592,537.61 2929,537.59 3266,537.61L3266,546.45C3263.48,550.58 3261.28,554.89 3259.08,559.2C3254.07,566.63 3249.88,574.57 3245.33,582.28C3162.31,725.96 3079.38,869.69 2996.39,1013.4C2993.71,1017.88 2991.45,1022.64 2988.25,1026.79C2781.5,1026.65 2574.75,1026.77 2368,1026.73C2311.18,1026.76 2254.36,1026.67 2197.55,1026.77C2192.74,1036.73 2189.43,1047.33 2185.27,1057.57C2131.28,1196.61 2077.41,1335.69 2023.53,1474.78C2020.32,1483.23 2017.11,1491.69 2013.54,1500L1264.59,1500C1248.77,1460.09 1233.46,1419.97 1217.95,1379.94C1186.15,1298.42 1154.75,1216.73 1123.02,1135.18C1109.53,1100.43 1096.11,1065.65 1082.7,1030.87C1059.15,1030.29 1035.56,1030.78 1012,1030.62C768.63,1030.58 525.26,1030.69 281.9,1030.57C278.82,1026.65 276.65,1022.17 274.21,1017.86C198.82,887.49 123.65,756.99 48.25,626.63C32.27,598.57 15.78,570.79 0,542.61L0,537.57M2863.71,575.79C2860.68,578.63 2857.26,581.23 2854.97,584.7C2854.3,589.81 2852.37,594.63 2851.53,599.7C2850.5,604.17 2850.78,608.9 2848.99,613.19C2845.26,622.13 2841.42,631.09 2835.93,639.11C2833.11,646.95 2829.2,654.42 2824.05,661C2820.91,664.75 2819.17,669.39 2816.16,673.22C2810.37,680.59 2806.64,689.34 2800.58,696.51C2793.55,706.26 2787.69,716.81 2780.59,726.52C2775.35,735.86 2770.26,745.33 2764.08,754.1C2759.55,761.7 2753.32,768.05 2748.47,775.43C2746.09,778.47 2744.73,782.21 2741.95,784.94C2738.71,788.44 2734.8,791.46 2732.71,795.86C2727.81,804.57 2722.13,813 2714.51,819.58C2708.84,823.24 2703.08,826.76 2697.23,830.11C2689.07,833.73 2680.98,837.64 2673.44,842.43C2668.25,845.82 2670.32,854.8 2676.24,856.08C2681.22,856.97 2686.41,856.08 2691.49,856.64C2692.79,859.75 2693.19,863.88 2690.07,866.04C2679.79,875.2 2675.2,888.48 2669.29,900.49C2666.12,906.45 2664.54,913.21 2664.43,919.94C2664.36,922.56 2662.51,924.63 2661.71,927.03C2661.44,930.34 2661.62,933.68 2661.49,937C2661.5,940.87 2660.52,945.23 2663.51,948.32C2665.57,952.93 2666.99,957.96 2669.89,962.21C2673.19,966.43 2678.56,968.04 2682.64,971.34C2691.21,978.06 2702.15,981.52 2713.01,981.46C2733.34,981.52 2753.68,981.31 2774.02,981.53C2778.69,981.78 2783.3,980.58 2788,980.74C2802.68,979.89 2817.59,980.91 2831.99,977.31C2841.07,974.76 2850.93,974.47 2859.17,969.4C2872.66,963.78 2882.15,952.1 2891.19,941.11C2900.75,927.23 2908.52,912.13 2914.72,896.47C2919.19,885.19 2921.47,873.2 2925.46,861.77C2925.89,858.36 2925.75,854.87 2925.37,851.47C2923.82,849.48 2922.04,847.36 2919.74,846.37C2916.09,846.73 2912.68,848.44 2910.17,851.08C2897.47,861.97 2890.91,878.34 2877.68,888.69C2870.14,895.99 2860.63,900.77 2853,907.94C2845.05,913.64 2836.53,918.68 2827.29,921.99C2817.57,924.81 2808.21,928.88 2798.17,930.51C2791.25,932.27 2784.05,931.45 2777,931.57C2771.8,931.72 2766.73,930.44 2761.88,928.74C2757.07,928.25 2752.06,929.18 2747.45,927.36C2742.14,925.26 2736.6,923.74 2731.69,920.81C2726.13,920.58 2721.19,918 2716.31,915.65C2714.48,913.83 2712.12,911.77 2712.44,908.94C2712.45,903.63 2715.24,898.89 2717.02,894.02C2718.57,889.5 2722.22,886.05 2723.37,881.37C2724.67,876.2 2728.58,872.42 2731.02,867.83C2734.95,861.35 2740.5,856.05 2746.16,851.08C2755.46,843.27 2767.02,839.2 2777.97,834.34C2786.99,831.01 2795.7,826.86 2804.91,824.01C2812.36,821.64 2818.72,816.9 2825.86,813.81C2829.13,812.33 2831.83,809.9 2834.66,807.74C2838.52,804.7 2843.26,803.13 2847.31,800.37C2851.91,797.26 2856.74,794.47 2861.68,791.91C2869.99,787.96 2876.84,781.68 2884.38,776.5C2890.94,771.52 2898.42,767.96 2905.22,763.34C2913.93,756.64 2922.3,749.44 2931.66,743.62C2939.23,739.55 2945.37,733.36 2950.56,726.59C2958.78,718.2 2966.07,708.83 2971.74,698.53C2975.12,692.33 2975.01,684.96 2974.56,678.11C2973.61,672.63 2973.82,666.84 2971.11,661.83C2969.9,658.8 2966.24,658.22 2963.51,657.33C2958.13,655.71 2952.3,656.65 2947.41,659.24C2943.46,662.15 2940.41,666.12 2938.31,670.52C2934.94,677.36 2930.74,683.87 2925.1,689.05C2917.69,695.99 2910.42,703.09 2903.66,710.67C2899.54,715.15 2896.67,721.09 2891.04,723.92C2887.93,725.76 2885.35,728.29 2882.59,730.57C2877.57,734.93 2871.61,738.15 2867.07,743.07C2863.38,747.3 2857.93,749.18 2853.67,752.67C2847.68,757.36 2841.79,762.22 2835.26,766.15C2827.85,770.52 2821.01,775.95 2812.89,778.97C2806.61,781.26 2801.58,785.84 2795.51,788.5C2791.14,791.01 2786.29,793.16 2781.14,792.68C2781.18,787.76 2785.29,784.5 2787.96,780.83C2793.23,775.82 2798.47,770.75 2803.52,765.51C2810.16,757.93 2815.08,749.08 2820.89,740.89C2826.4,733.06 2831.4,724.84 2837.59,717.5C2843.28,710.43 2846.91,701.86 2853.47,695.46C2860.25,687.19 2867.27,679.04 2872.95,669.94C2877.69,663 2882.46,656.06 2886.85,648.88C2890.41,643.96 2893.77,638.86 2896.44,633.37C2900.29,625.46 2904.84,617.75 2906.76,609.07C2908.94,603.73 2908.66,597.9 2908.58,592.26C2903.76,583.46 2896.11,575.9 2886.3,573.04C2878.74,571.16 2870.62,572.31 2863.71,575.79M343.09,594.04C336.83,597.55 336.66,607.64 342.61,611.47C353.12,618.9 366.02,621.65 377.24,627.73C378.45,629.05 379.16,630.72 380.08,632.25C381.88,632.4 383.68,632.51 385.49,632.61C388.37,635.82 390.78,639.63 391.31,644C391.96,650.36 387.87,656.22 383.05,659.98C380.95,662.42 377.21,661.82 375.01,664.11C369.82,668.98 362.89,671.22 356.85,674.78C353.74,677.14 351.96,680.8 351.37,684.6C353.98,686.72 356.05,690.5 359.92,690.06C365.53,689.15 371.25,689.88 376.85,689.26C381.45,686.66 386.81,688.03 391.73,686.7C401.68,684.41 411.98,686.64 421.99,684.94C430.96,683.89 440.11,685.73 449.02,683.88C457.41,683.07 465.91,681.54 473.52,677.74C476.82,676.07 480.7,675.2 483.37,672.53C484.3,667.08 482.5,661.69 481.39,656.42C478.03,651.81 474.62,647.22 471.62,642.36C466.25,633.55 457.13,628.18 450.02,620.99C444.08,616.38 437.35,612.94 431.03,608.9C424.51,604.51 417.47,600.89 410.16,598.03C396.67,594.62 383,591.41 369.06,590.71C360.39,590.81 350.95,589.53 343.09,594.04M2704.46,628.41C2702.9,630.16 2701.07,631.66 2699.71,633.56C2699.15,639.31 2696.94,644.67 2695.34,650.16C2694.69,653.58 2692.28,656.28 2691.53,659.67C2690.31,662.51 2687.56,664.31 2685.54,666.55C2665.48,686.48 2645.6,706.59 2625.46,726.44C2618.41,733.08 2608.87,736.24 2601.73,742.74C2598.63,745.71 2595.3,748.54 2591.29,750.18C2585.56,753.67 2581.57,759.41 2575.82,762.9C2571.92,765.15 2568,767.38 2563.87,769.16C2558.36,773.14 2551.73,775.18 2546.34,779.33C2541.36,783.08 2535.6,785.54 2530.04,788.24C2524.97,791.72 2519.86,795.17 2515.1,799.06C2513,800.93 2510.61,802.71 2509.37,805.3C2507.03,811.25 2503.01,816.43 2501.29,822.64C2498.87,829.32 2499.73,836.56 2500.78,843.4C2503.49,850.17 2512.82,854.15 2519.35,850.31C2525.11,847.49 2531.31,845.44 2536.48,841.52C2541.14,838.04 2547.19,837.36 2551.93,833.99C2556.05,831.31 2560.48,827.86 2565.74,828.68C2563.65,833.29 2562.21,838.2 2559.35,842.41C2558.43,846.43 2555.74,849.66 2554.59,853.59C2549.28,861.57 2546.04,870.8 2540.69,878.79C2537.04,882.76 2534.92,887.72 2532.04,892.2C2528.98,898.01 2524.65,903.02 2521.5,908.77C2519.45,912.6 2515.87,915.39 2514.2,919.44C2511.38,925.76 2505.82,930.23 2502.25,936.06C2497.78,943.81 2494.15,952.04 2491.54,960.6C2489.48,965.35 2488.96,970.8 2490.29,975.83C2491.4,978.99 2494.31,982.14 2497.95,981.8C2501.15,981.94 2504.48,981.89 2507.43,980.39C2516.57,977.4 2522.27,969.21 2529.3,963.21C2539.35,954.95 2544.65,942.73 2553.38,933.32C2560.35,924.94 2563.94,914.32 2571.27,906.2C2576.47,900.59 2580.59,894.14 2584.63,887.68C2588.75,881.55 2594.58,876.77 2598.49,870.48C2601.53,865.33 2604.81,860.28 2608.77,855.78C2613.73,850.05 2617.98,843.72 2623.39,838.38C2630.01,830.08 2638.54,823.42 2644.47,814.54C2649.56,806.72 2657.67,800.82 2660.42,791.58C2661.63,787.55 2659.45,783.67 2658.02,780.03C2655.43,779.2 2652.57,779.8 2649.91,779.81C2646.18,780.98 2643.48,784.1 2640.58,786.57C2633.66,794.32 2624.49,799.41 2615.75,804.78C2611.6,807.98 2606.36,809.07 2601.32,809.9C2601.4,807.08 2600.87,803.97 2602.54,801.49C2605.64,796.45 2608.99,791.42 2613.47,787.48C2618.91,782.62 2623.66,777.01 2629.4,772.47C2637.81,764.27 2648.6,759.14 2657.41,751.43C2660.28,748.93 2663.48,746.83 2666.44,744.42C2673.01,738.35 2681.78,735.47 2688.52,729.59C2705.68,718.24 2720.7,703.86 2738.52,693.48C2746.78,688.37 2756.29,685.24 2763.61,678.65C2767.24,675.41 2769.52,671.04 2772.3,667.11C2775.34,662.68 2777.64,657.47 2777.5,652C2777.88,646.77 2775.04,642.02 2772.14,637.92C2769.64,635.2 2767.2,631.71 2763.24,631.31C2757.31,629.58 2751.16,628.89 2745.04,628.37C2731.51,628.31 2717.98,628.32 2704.46,628.41M487.33,691.14C481.25,694.25 474.53,695.96 468.66,699.49C465.8,701.14 462.71,702.33 459.59,703.39C453.89,705.31 448.75,708.54 443.21,710.83C434.73,712.44 427.69,718.32 418.96,719.19C414.03,719.11 409.97,722.65 405.04,722.59C391.79,722.83 378.51,722.72 365.26,722.41C355.21,720.04 344.75,717.89 335.89,712.3C333.1,710.64 329.71,711.42 326.67,711.67C324.67,714.4 322.05,717.32 322.62,720.98C323.27,726.56 324.88,732 325.68,737.57C327.84,741.28 332,743.53 333.46,747.67C334.93,751.27 338.3,753.62 341.48,755.63C344.95,757.73 347.1,761.26 349.88,764.1C358.54,769.73 367.35,775.29 377.08,778.91C382.11,781.17 387.67,781.69 392.88,783.45C397.4,785.04 402.27,784.59 406.98,784.78C416.21,784.56 425.71,785.66 434.62,782.66C439.51,780.77 444.02,778.04 448.8,775.9C452.55,773.93 456.82,773.09 460.28,770.56C463.2,769.12 466.29,768.02 469.07,766.28C473.43,764.82 477.1,761.23 481.97,761.61C486.77,761.71 491.79,760.79 496.37,762.63C496.36,765.42 497.71,769.08 495.2,771.16C490.4,775.68 485.62,780.31 481.74,785.67C477.09,794.22 472.52,802.85 466.74,810.7C462.96,815.24 457.48,818.15 454.26,823.2C452.27,826.22 449.15,828.19 446.54,830.62C442.5,835.24 438.02,839.5 433.1,843.18C430.58,845.27 426.82,844.58 424.32,842.81C416.72,839.11 411.46,832.29 405.53,826.52C402.36,823.7 398,823.42 393.97,823.48C392.88,824.66 391.72,825.79 390.75,827.09C389.54,832.16 388.86,837.81 391.32,842.63C393.68,848.58 398.85,852.72 401.72,858.4C406.91,865.81 411.14,873.89 417.11,880.75C426.19,894.81 439.49,905.18 452.02,915.97C455.29,919.38 458.32,923.03 461.47,926.55C462.87,927.95 461.88,929.75 461.22,931.23C449.39,933.6 437.07,930.64 425.4,934.24C421.06,935.78 416.2,934.83 412.08,937.08C404.71,940.74 396.77,942.98 389.05,945.75C384.27,947.23 379.61,949.11 374.72,950.24C366.47,951.38 358.02,949.56 349.8,950.9C346.87,953.27 345.49,957.57 346.55,961.23C347.76,967.24 353.7,970.26 357.63,974.37C360.69,976.92 362.92,980.93 367.04,981.84C370.06,982.38 372.06,985.01 374.99,985.8C378.2,986.61 380.2,989.37 382.59,991.43C384.64,993.34 387.6,993.64 389.88,995.19C393.02,997.29 396.63,998.52 400.08,1000.03C405.06,1002.46 410.76,1001.39 416.09,1001.41C427.2,1000.93 437.27,995.61 445.99,989.05C450.54,985.42 456.21,983.83 461.5,981.62C468.82,978.87 476.17,976.04 482.85,971.92C488.58,969.51 494.97,969.56 500.93,967.94C507.65,966.67 513.86,963.57 520.66,962.65C527.12,960.33 533.52,957.75 540.16,955.94C548.31,954.67 556.61,955.96 564.79,955.13C568.81,954.26 572.93,954.4 577.01,954.44C581.9,954.64 586.68,953.38 591.46,952.54C597.48,950.78 603.82,951.76 610,951.5C625.05,951.83 640.55,950.25 655.06,955.13C660.03,955.9 665.18,954.89 670.13,956.06C676.03,957.49 681.89,959.37 688.01,959.68C698.25,961.26 708.52,962.7 718.8,963.92C722.84,964.67 726.85,965.81 730.99,965.79C738.33,966.27 745.51,968 752.8,968.94C762.71,971.27 772.87,972.08 782.95,973.34C785.75,972.95 788.53,972.23 791.17,971.22C794.83,969.59 796.75,965.65 797.43,961.89C798.15,956.43 795.5,951.02 792.01,946.98C785.38,940.77 778.14,935.05 769.98,930.98C764.93,928.18 760.36,924.62 755.37,921.73C747.56,917.67 739.34,914.49 731.41,910.68C727.38,908.85 722.92,908.36 718.77,906.88C711.18,903.97 702.89,905.17 695.01,903.99C691.66,903.44 688.29,903.86 684.98,904.35C676.44,905.01 667.78,903.9 659.32,905.51C655.19,906.37 650.94,906.27 646.85,907.32C634,909.49 621.64,913.79 608.92,916.53C602.08,916.84 595.2,916.74 588.39,916.24C585.77,915.43 582.56,915.2 580.77,912.91C579.59,907.08 582.06,901.51 583.93,896.14C585.26,892.29 589.15,889.42 588.6,885.01C590.75,865.12 592.12,844.6 586.95,825.02C585.35,818 582.02,811.53 580.23,804.56C575.78,797.6 569.23,792.35 563.5,786.51C559.58,782.24 553.82,780.36 549.99,776C539.85,767.84 527.24,763.68 516.53,756.41C514.29,754.92 512.82,752.52 513.62,749.8C517.75,747.37 522.04,745.1 526.76,744.05C534.39,741.75 542.98,742.47 549.9,738.04C551.27,734.96 552.48,731.82 554.02,728.82C556.13,721.03 552.24,712.75 546.03,707.96C537.98,701.64 528.75,697.01 519.64,692.42C516.42,690.65 512.75,690.14 509.16,689.72C501.98,688.48 494.01,687.52 487.33,691.14M503.17,784.9C505.76,783.75 507.65,786.09 509.23,787.78C511.27,790.47 514.55,792.51 515.16,796.04C515.48,799.98 519.59,801.46 522.03,803.98C526.47,807.25 526.31,813.32 529.68,817.36C533.21,827.78 538.68,837.81 539.12,849.04C539.29,858.81 540.39,868.75 538.14,878.38C537.37,883.75 534.89,888.62 532.66,893.5C530.79,897.62 527.7,901.02 525.9,905.17C523.09,911.53 517.22,915.7 511.76,919.64C506,923.66 498.25,923.23 491.96,920.8C487.19,918.07 485.07,912.31 485.56,907C485.85,898.53 484.85,889.68 488.25,881.69C490.76,871.84 495.35,862.71 498.04,852.93C499.23,848.73 498.27,844.32 498.8,840.06C499.3,837.7 500.49,835.49 500.52,833.05C500.65,824.68 500.53,816.31 500.55,807.94C500.48,803.38 501.89,798.83 500.94,794.29C500.37,791.12 499.97,786.81 503.17,784.9" style="fill:rgb(1,32,159);fill-rule:nonzero;"/>
</svg>
